# xmcd CD database file
#
# Track frame offsets:
#	150
#	14315
#	28309
#	44089
#	59846
#	74516
#	88724
#	101226
#	115770
#	128720
#	140345
#	153564
#	166402
#	182680
#	196572
#
# Disc length: 2829 seconds
#
# Revision: 0
# Processed by: cddbd v1.5.2PL0 Copyright (c) Steve Scherf et al.
# Submitted via: CDex 1.51
#
DISCID=d90b0b0f
DTITLE=Various Artist - Classic Jazz - the Ultimate Collection [CD3)
DYEAR=2007
DGENRE=Jazz
TTITLE0=Thelonious Monk Quintet - Round Midnight
TTITLE1=Thelonious Monk Quintet - Epistrophy
TTITLE2=Django Reinhardt and Stephane Grapelli - Manoir de Mes Revas
TTITLE3=Louis Armstrong and His All Stars - C-Jam Blues
TTITLE4=George Shearing Quintet - September in the Rain
TTITLE5=Art Tatum - Goin' Home
TTITLE6=Lennie Tristano Quintet - Progression
TTITLE7=Miles Davis and His Orchestra - Jeru
TTITLE8=Bud Powell Quartet - Dance of the Infidels
TTITLE9=Dave Brubeck Trio - Indiana
TTITLE10=Sarah Vaughan with Miles Davis and His Orchestra - Mean to Me
TTITLE11=Howard McGhee and His Band - Lo-Flame
TTITLE12=Charlie Parker and His Orchestra - Star Eyes
TTITLE13=Oscar Peterson Trio - Just One of Those Things
TTITLE14=Billie Holiday and Her Orchestra - Blue Moon
EXTD=YEAR: 2007
EXTT0=
EXTT1=
EXTT2=
EXTT3=
EXTT4=
EXTT5=
EXTT6=
EXTT7=
EXTT8=
EXTT9=
EXTT10=
EXTT11=
EXTT12=
EXTT13=
EXTT14=
PLAYORDER=
